HIERARCHY
ROOT Hips
{
    OFFSET 0.000000 0.000000 0.000000
    CHANNELS 6 Xposition Yposition Zposition Zrotation Xrotation Yrotation
    JOINT Spine
    {
        OFFSET -0.000000 8.505030 0.000000
        CHANNELS 3 Zrotation Xrotation Yrotation
        JOINT Spine1
        {
            OFFSET -0.000000 25.070629 0.000000
            CHANNELS 3 Zrotation Xrotation Yrotation
            JOINT Neck
            {
                OFFSET -0.000000 24.967667 2.269788
                CHANNELS 3 Zrotation Xrotation Yrotation
                JOINT Head
                {
                    OFFSET -0.000000 14.520781 -2.074397
                    CHANNELS 3 Zrotation Xrotation Yrotation
                    End Site
                    {
                        OFFSET -0.000000 25.929966 0.000000
                    }
                }
            }
            JOINT LeftShoulder
            {
                OFFSET 4.117346 22.983784 -0.389865
                CHANNELS 3 Zrotation Xrotation Yrotation
                JOINT LeftArm
                {
                    OFFSET 11.957758 0.000000 0.000000
                    CHANNELS 3 Zrotation Xrotation Yrotation
                    JOINT LeftForeArm
                    {
                        OFFSET 31.907600 0.000000 0.000000
                        CHANNELS 3 Zrotation Xrotation Yrotation
                        JOINT LeftHand
                        {
                            OFFSET 28.601147 0.000000 0.000000
                            CHANNELS 3 Zrotation Xrotation Yrotation
                            End Site
                            {
                                OFFSET 15.557981 0.000000 0.000000
                            }
                        }
                    }
                }
            }
            JOINT RightShoulder
            {
                OFFSET -4.061940 22.983784 -0.389865
                CHANNELS 3 Zrotation Xrotation Yrotation
                JOINT RightArm
                {
                    OFFSET -11.957758 0.000000 0.000000
                    CHANNELS 3 Zrotation Xrotation Yrotation
                    JOINT RightForeArm
                    {
                        OFFSET -31.907600 0.000000 0.000000
                        CHANNELS 3 Zrotation Xrotation Yrotation
                        JOINT RightHand
                        {
                            OFFSET -28.601147 0.000000 0.000000
                            CHANNELS 3 Zrotation Xrotation Yrotation
                            End Site
                            {
                                OFFSET -15.557981 0.000000 0.000000
                            }
                        }
                    }
                }
            }
        }
    }
    JOINT LeftUpLeg
    {
        OFFSET 10.371986 0.000000 0.000000
        CHANNELS 3 Zrotation Xrotation Yrotation
        JOINT LeftLeg
        {
            OFFSET -0.000000 -42.486427 0.000000
            CHANNELS 3 Zrotation Xrotation Yrotation
            JOINT LeftFoot
            {
                OFFSET -0.000000 -48.322342 0.000000
                CHANNELS 3 Zrotation Xrotation Yrotation
                JOINT LeftToeBase
                {
                    OFFSET -0.000000 -6.741791 15.557981
                    CHANNELS 3 Zrotation Xrotation Yrotation
                    End Site
                    {
                        OFFSET -0.000000 0.000000 4.148795
                    }
                }
            }
        }
    }
    JOINT RightUpLeg
    {
        OFFSET -10.371986 0.000000 0.000000
        CHANNELS 3 Zrotation Xrotation Yrotation
        JOINT RightLeg
        {
            OFFSET -0.000000 -42.486427 0.000000
            CHANNELS 3 Zrotation Xrotation Yrotation
            JOINT RightFoot
            {
                OFFSET -0.000000 -48.322342 0.000000
                CHANNELS 3 Zrotation Xrotation Yrotation
                JOINT RightToeBase
                {
                    OFFSET -0.000000 -6.741791 15.557981
                    CHANNELS 3 Zrotation Xrotation Yrotation
                    End Site
                    {
                        OFFSET -0.000000 0.000000 4.148795
                    }
                }
            }
        }
    }
}
MOTION
Frames:    14
Frame Time:    0.008333
22.465683    98.962646    43.304623    0.344225    -2.001127    87.944588    1.373289    -8.296075    0.772579    0.172314    -2.859999    0.677393    1.192865    33.451778    -5.213835    1.960616    -1.482929    -4.917678    14.545568    -0.456505    -14.398969    -7.697727    -5.158854    -3.388070    -2.464355    -1.318969    20.114491    -1.766928    -0.839136    -2.771589    -15.683482    2.290389    -7.845014    10.944654    -2.776151    20.324018    2.372641    2.064034    -16.264524    5.886775    2.256671    -2.845403    5.046662    8.345731    5.197205    -2.246102    0.455082    5.432875    -4.338167    -5.225831    8.827792    0.000000    0.000000    0.000000    -1.662880    7.114958    3.034939    1.281367    -0.257763    -1.280795    4.852843    -3.266871    -14.213396    0.000000    0.000000    0.000000    
22.473602    98.964287    43.305592    0.342961    -2.004491    87.960358    1.354221    -8.301485    0.771985    0.184504    -2.869786    0.678455    1.205381    33.461975    -5.242832    1.983252    -1.468670    -4.942300    14.559236    -0.454793    -14.430408    -7.768064    -5.094390    -3.372477    -2.472478    -1.322680    20.161743    -1.762132    -0.838907    -2.878997    -15.678834    2.312948    -7.849579    10.998494    -2.743912    20.266315    2.348534    2.061183    -16.208906    5.857741    2.253044    -2.784571    5.048834    8.349964    5.179585    -2.238336    0.444299    5.445239    -4.375481    -5.220601    8.817558    0.000000    0.000000    0.000000    -1.656248    7.121057    3.008717    1.280827    -0.272779    -1.400293    4.891641    -3.249021    -14.096644    0.000000    0.000000    0.000000    
22.466469    98.970863    43.311481    0.299638    -2.007051    87.968857    1.342031    -8.331529    0.769417    0.175696    -2.896162    0.676194    1.196939    33.464657    -5.259618    2.046244    -1.444101    -4.951883    14.581140    -0.447045    -14.441552    -7.803766    -5.147220    -3.374121    -2.476718    -1.350974    20.144350    -1.698070    -0.871412    -2.677346    -15.643850    2.321226    -7.856329    11.033160    -2.769572    20.212032    2.317525    2.044669    -16.076406    5.991093    2.215296    -2.991897    5.061335    8.293205    5.177408    -2.246458    0.458660    5.435302    -4.375902    -5.210385    8.833530    0.000000    0.000000    0.000000    -1.644832    7.061555    3.007225    1.276941    -0.236788    -1.299108    4.884945    -3.253823    -14.204409    0.000000    0.000000    0.000000    
22.476887    98.973122    43.314629    0.309077    -2.012033    87.971619    1.329028    -8.346053    0.770387    0.178205    -2.872417    0.677960    1.224984    33.465160    -5.289601    2.053249    -1.430661    -4.977415    14.599935    -0.446785    -14.459425    -7.864836    -5.126630    -3.364825    -2.466404    -1.402524    20.152822    -1.597148    -0.927610    -2.632914    -15.628120    2.317842    -7.867633    11.078694    -2.772402    20.165247    2.353280    2.101589    -16.055733    6.010847    2.280354    -2.914450    5.064445    8.311530    5.190429    -2.238202    0.451457    5.448196    -4.390285    -5.194860    8.797409    0.000000    0.000000    0.000000    -1.635036    7.077977    3.006960    1.273742    -0.246120    -1.424761    4.892015    -3.232639    -14.089213    0.000000    0.000000    0.000000    
22.497738    98.968201    43.312332    0.355445    -2.015070    87.977455    1.329424    -8.323062    0.764825    0.168998    -2.859549    0.672324    1.187788    33.482536    -5.293110    2.130185    -1.417283    -4.975576    14.643211    -0.563972    -14.468905    -8.017065    -4.960899    -3.332201    -2.417182    -1.430871    20.135696    -1.550018    -0.966733    -2.587170    -15.625478    2.327831    -7.878860    11.140478    -2.779673    20.144127    2.338759    2.025523    -15.964308    5.735900    2.207151    -2.918633    5.060973    8.388212    5.178433    -2.234955    0.418048    5.463383    -4.377658    -5.195652    8.793504    0.000000    0.000000    0.000000    -1.638095    7.146018    3.005475    1.278149    -0.253382    -1.331647    4.882385    -3.257384    -14.177458    0.000000    0.000000    0.000000    
22.504059    98.968353    43.315689    0.356695    -2.021042    87.977043    1.306639    -8.326773    0.764674    0.193503    -2.876099    0.674447    1.193866    33.486744    -5.320432    2.150791    -1.355388    -5.000900    14.658402    -0.481131    -14.458126    -8.068929    -5.039766    -3.384432    -2.409739    -1.433614    20.161310    -1.540837    -0.970713    -2.568761    -15.606283    2.317327    -7.869109    11.172150    -2.745447    20.089149    2.346818    2.033062    -15.941803    5.679537    2.223329    -2.786725    5.072927    8.393341    5.182960    -2.246841    0.425371    5.464967    -4.371420    -5.204092    8.793294    0.000000    0.000000    0.000000    -1.629534    7.151420    3.018949    1.276271    -0.251512    -1.329718    4.880755    -3.256155    -14.191910    0.000000    0.000000    0.000000    
22.510960    98.968605    43.315281    0.366656    -2.024183    87.979591    1.305372    -8.326600    0.763921    0.174793    -2.875039    0.673370    1.230455    33.527637    -5.350958    2.161903    -1.380842    -5.023681    14.681456    -0.482982    -14.470012    -8.125831    -5.024373    -3.377161    -2.413475    -1.352704    20.212404    -1.710245    -0.881085    -2.776339    -15.574074    2.337008    -7.880595    11.218863    -2.787438    20.074171    2.371608    2.079348    -15.917146    5.691632    2.273569    -2.760460    5.074980    8.412138    5.167380    -2.248052    0.410231    5.479024    -4.363165    -5.190141    8.796436    0.000000    0.000000    0.000000    -1.621582    7.164746    2.998755    1.269977    -0.251914    -1.352441    4.892574    -3.254147    -14.161373    0.000000    0.000000    0.000000    
22.517675    98.970268    43.316490    0.370989    -2.026350    87.978691    1.297560    -8.337597    0.763547    0.166840    -2.876573    0.673157    1.231719    33.560345    -5.374556    2.214195    -1.355171    -5.040048    14.690758    -0.449648    -14.498051    -8.145878    -5.111810    -3.360393    -2.402160    -1.371599    20.175966    -1.806832    -0.904318    -2.528878    -15.540066    2.338726    -7.868596    11.250839    -2.758394    20.038748    2.383536    2.102236    -15.929645    5.743230    2.301686    -2.669941    5.075686    8.417749    5.184354    -2.245201    0.421020    5.474344    -4.359147    -5.189736    8.782923    0.000000    0.000000    0.000000    -1.622854    7.174782    3.025797    1.277940    -0.254811    -1.358219    4.909776    -3.252898    -14.190602    0.000000    0.000000    0.000000    
22.520887    98.970390    43.314640    0.373113    -2.023883    87.977493    1.275582    -8.349485    0.758853    0.186846    -2.864278    0.670408    1.235936    33.560001    -5.384396    2.218445    -1.319556    -5.049619    14.675697    -0.458760    -14.498804    -8.178502    -5.106622    -3.355003    -2.399789    -1.397115    20.165924    -1.664519    -0.933831    -2.516446    -15.526942    2.320551    -7.873260    11.283533    -2.727884    20.028128    2.375910    2.115609    -15.894930    5.755502    2.311771    -2.694069    5.071279    8.420250    5.174214    -2.243846    0.423401    5.470000    -4.358339    -5.193077    8.797281    0.000000    0.000000    0.000000    -1.628307    7.174741    3.045809    1.281088    -0.249369    -1.371307    4.920493    -3.258826    -14.198110    0.000000    0.000000    0.000000    
22.526991    98.970680    43.316219    0.379300    -2.029400    87.975868    1.264769    -8.358805    0.752779    0.190045    -2.855866    0.665090    1.242199    33.541355    -5.387070    2.242010    -1.237301    -5.049536    14.694243    -0.453339    -14.503986    -8.204682    -5.218569    -3.339023    -2.423460    -1.379111    20.164106    -1.806801    -0.905689    -2.694414    -15.509641    2.333239    -7.874604    11.338053    -2.761219    20.023792    2.374770    2.054496    -15.877169    5.506020    2.259108    -2.629061    5.078220    8.427533    5.180645    -2.244023    0.429779    5.444157    -4.376179    -5.201120    8.817009    0.000000    0.000000    0.000000    -1.616966    7.184401    3.024684    1.271323    -0.247699    -1.361605    4.914050    -3.257431    -14.182518    0.000000    0.000000    0.000000    
22.530090    98.969551    43.314590    0.381543    -2.031413    87.968590    1.287080    -8.381328    0.755474    0.118771    -2.824361    0.664166    1.430737    33.454067    -5.453973    2.060391    -1.095613    -5.118281    14.787577    -0.450136    -14.498466    -8.264374    -5.322123    -3.350549    -2.446563    -1.374176    20.174164    -1.821777    -0.896229    -2.687971    -15.443106    2.336629    -7.855980    11.374117    -2.782002    19.993843    2.345592    2.007372    -15.844897    5.453037    2.206569    -2.669565    5.077271    8.432043    5.185035    -2.244642    0.431352    5.456991    -4.366822    -5.212359    8.812851    0.000000    0.000000    0.000000    -1.618794    7.181051    3.042885    1.274170    -0.242058    -1.348264    4.916180    -3.257464    -14.203085    0.000000    0.000000    0.000000    
22.533077    98.969795    43.312145    0.390006    -2.033915    87.967880    1.267737    -8.378648    0.755133    0.137582    -2.828039    0.665758    1.462283    33.497761    -5.460005    2.059328    -1.112591    -5.118349    14.765929    -0.498318    -14.560830    -8.293726    -5.231812    -3.265417    -2.428645    -1.413078    20.127779    -1.882822    -0.937279    -2.724463    -15.433913    2.347598    -7.869844    11.418687    -2.807069    20.001492    2.331486    1.965185    -15.843672    5.368972    2.167511    -2.601833    5.077011    8.435563    5.177852    -2.238845    0.444449    5.447430    -4.358171    -5.215461    8.821463    0.000000    0.000000    0.000000    -1.619437    7.184286    3.053870    1.277912    -0.227097    -1.368149    4.909026    -3.265124    -14.189877    0.000000    0.000000    0.000000    
22.536627    98.969215    43.311630    0.394404    -2.039730    87.956116    1.268616    -8.391584    0.747687    0.138741    -2.807747    0.658125    1.478231    33.468002    -5.451991    2.026700    -1.035898    -5.114019    14.748056    -0.517697    -14.532704    -8.307221    -5.199672    -3.268446    -2.437904    -1.515840    20.103842    -1.693553    -1.042818    -2.763051    -15.430584    2.331416    -7.853676    11.466567    -2.808244    20.004059    2.348541    1.959171    -15.829203    5.266284    2.165389    -2.612241    5.084804    8.440711    5.178676    -2.245551    0.446483    5.467625    -4.380855    -5.226159    8.810889    0.000000    0.000000    0.000000    -1.611005    7.191829    3.055648    1.272421    -0.234529    -1.364720    4.881848    -3.256371    -14.187268    0.000000    0.000000    0.000000    
22.540306    98.969093    43.309273    0.407019    -2.043805    87.944313    1.275613    -8.395020    0.748314    0.119361    -2.791475    0.657710    1.509071    33.451736    -5.455668    2.018914    -0.969612    -5.115161    14.768286    -0.520238    -14.527795    -8.339720    -5.211437    -3.267903    -2.450575    -1.530603    20.083330    -1.609495    -1.059550    -2.642557    -15.409098    2.318262    -7.831950    11.503510    -2.885736    19.974064    2.384503    2.065240    -15.804520    5.508253    2.266563    -2.692299    5.083403    8.455814    5.200014    -2.238152    0.454055    5.438795    -4.382529    -5.234136    8.820603    0.000000    0.000000    0.000000    -1.608581    7.198045    3.069642    1.271345    -0.223688    -1.351885    4.898710    -3.265073    -14.213925    0.000000    0.000000    0.000000    
